# xmcd
#
# Track frame offsets:
#	150
#	17591
#	37048
#	52847
#	72001
#	87288
#	109112
#	125629
#	140824
#	153616
#	167751
#	186059
#	199281
#	210079
#
# Disc length: 3023 seconds
#
# Revision: 1
# Processed by: cddbd v1.5.1PL2 Copyright (c) Steve Scherf et al.
# Submitted via: audiograbber 1.83.01
#
DISCID=c00bcd0e
DTITLE=Star Disc - SD127
DYEAR=1900
DGENRE=Karaoke
TTITLE0=Brooks and Dunn - It's Getting Better All The Time
TTITLE1=McBride, Martina - God's Will
TTITLE2=Keith, Toby - Mockingbird
TTITLE3=Gentry, Montgomery - Gone
TTITLE4=Adkins, Trace - Songs About Me
TTITLE5=Wright, Chely - Bumper Of my Suv
TTITLE6=Twain, Shania - I Ain't No Quitter
TTITLE7=Murphy, David Lee - Inspiration
TTITLE8=Blue Country - Nothin' But Cowboy Boots
TTITLE9=Anderson, Keith - Pickin' Wildflowers
TTITLE10=Stone, Doug - Georgia
TTITLE11=Krauss, Alison - Restless
TTITLE12=Nelson, Willie and Toby Keith - Midnight Rider
TTITLE13=McGraw, Tim and Faith Hill - Blank Sheet Of Paper
EXTD=
EXTT0=
EXTT1=
EXTT2=
EXTT3=
EXTT4=
EXTT5=
EXTT6=
EXTT7=
EXTT8=
EXTT9=
EXTT10=
EXTT11=
EXTT12=
EXTT13=
PLAYORDER=
